<?xml version="1.0" encoding="utf-8"?>
<!-- Generator: Adobe Illustrator 22.0.1, SVG Export Plug-In . SVG Version: 6.00 Build 0)  -->
<svg version="1.1" id="Layer_1" xmlns="http://www.w3.org/2000/svg" xmlns:xlink="http://www.w3.org/1999/xlink" x="0px" y="0px"
	 viewBox="0 0 535.3 348.5" style="enable-background:new 0 0 535.3 348.5;" xml:space="preserve">
<style type="text/css">
	.st0{fill:#FFFFFF;}
</style>
<g>
	<g>
		<polygon points="267.9,187.7 276.1,184.9 334,324.7 391.9,184.9 400.2,187.6 334,347.2 		"/>
		<path class="st0" d="M275.8,185.5l54.5,131.6l2.8,6.7l0.9,2.2l0.9-2.2l8.5-20.6l48.7-117.7l4.2,1.4l3,1l-46.1,111.3L334,345.9
			l-11.7-28.1L268.6,188l2.1-0.7L275.8,185.5 M276.4,184.3c-3.2,1.1-6,2-9.1,3.1c22.2,53.6,44.2,106.7,66.8,161.1
			c22.6-54.5,44.6-107.6,66.8-161.2c-3.2-1-6-2-9.2-3c-19.2,46.3-38.2,92.1-57.6,139.1C314.6,276.4,295.6,230.5,276.4,184.3
			L276.4,184.3z"/>
	</g>
	<g>
		<path d="M515.9,146.9c-4.9-11.6-5.1-11.7-17.8-11.7c-5.8,0-11.6,0-17.4,0c-5.9,0-11.9,0-17.8,0c-14.6,0-25.8,0-36.2-0.1h-0.1
			c-3.7,0-5.5,1.3-6.8,4.8c-2.7,7.2-5.6,14.3-8.7,21.8c-1.1,2.8-2.3,5.5-3.4,8.4l-8.3-3.7l67.3-165l67.2,164.8l-8.2,3.8L515.9,146.9
			z"/>
		<path class="st0" d="M466.7,2.7L489,57.3l44.3,108.6l-7.3,3.4l-2.7-6.5c-2.3-5.4-4.5-10.8-6.8-16.1c-5-11.8-5.3-12-18.2-12
			c-5.9,0-11.7,0-17.6,0c-5.9,0-11.8,0-17.6,0c-14.6,0-25.8,0-36.2-0.1l-0.1,0c-3.9,0-5.9,1.4-7.3,5.1c-2.7,7.2-5.6,14.3-8.7,21.8
			c-1.1,2.6-2.1,5.2-3.2,7.9l-6-2.7l-1.4-0.6l46.5-113.9L466.7,2.7 M466.7,0c-23,56.4-45.4,111.3-67.9,166.5
			c3.1,1.4,5.8,2.6,9.2,4.1c4.3-10.6,8.4-20.5,12.3-30.6c1.2-3.2,2.8-4.5,6.4-4.5c0,0,0.1,0,0.1,0c12.1,0.1,24.1,0.1,36.2,0.1
			c11.8,0,23.5,0,35.3,0c12.5,0,12.5,0,17.3,11.4c3.3,7.8,6.5,15.5,9.9,23.6c3.4-1.6,6.1-2.9,9.1-4.3C512,111.1,489.6,56.3,466.7,0
			L466.7,0z"/>
	</g>
	<g>
		<path d="M374.8,165.6c-2.7-3.4-5.3-6.8-7.9-10.3l-7.3-9.5c-9.5-12.3-19.2-25.1-28.8-37.7c-1.6-2.1-3.1-2.9-5.5-2.9
			c-0.5,0-1,0-1.6,0.1c-5.6,0.7-11.2,1-17.1,1.4c-2.4,0.1-4.8,0.3-7.3,0.5l-0.5,0v60.3h-8.4c0-0.4,0-0.7-0.1-1.1
			c-0.1-1.1-0.2-2.3-0.2-3.5c0-12.8,0-25.6,0-38.4c0-36.9,0-75-0.1-112.5c0-4.3,1.1-5.4,5.3-5.6c3.9-0.2,7.5-0.3,10.9-0.3
			c19.1,0,34.2,3.4,47.5,10.6c22.3,12.2,31.1,36.5,21,58c-5.5,11.8-15.2,20-30.5,26c-1,0.4-1.9,0.7-2.9,1.1
			c-0.7,0.3-1.5,0.5-2.2,0.8c-0.2,0.1-0.3,0.3-0.5,0.5c-0.1,0.1-0.2,0.3-0.3,0.5l-0.2,0.3l46.8,61.6l-6.9,4.5L374.8,165.6z
			 M305.4,14.6c-1.9,0-3.9,0-5.8,0.1l-0.5,0V98l0.5,0c1.6,0,3.1,0,4.7,0c31,0,44.6-7.8,53.9-15.4c7.9-6.5,12.5-16,12.5-26
			c0.1-10.2-4.5-20-12.6-26.8C342.3,16.4,323.4,14.6,305.4,14.6z"/>
		<path class="st0" d="M306.4,6.5c19,0,34.1,3.4,47.3,10.6c22.1,12,30.8,36.1,20.8,57.3c-5.5,11.6-15.1,19.8-30.2,25.8
			c-1,0.4-1.9,0.7-2.9,1.1c-0.7,0.3-1.5,0.5-2.2,0.8c-0.4,0.1-0.6,0.4-0.7,0.7c-0.1,0.1-0.2,0.3-0.3,0.5l-0.4,0.6l0.4,0.6l17.5,23
			l28.8,37.9l-3.3,2.2l-2.8,1.8c-1-1.3-2.1-2.7-3.1-4c-2.6-3.3-5.3-6.8-7.9-10.2c-2.4-3.1-4.8-6.3-7.2-9.4
			c-9.5-12.4-19.3-25.2-28.8-37.8c-1.7-2.2-3.4-3.1-5.9-3.1c-0.5,0-1.1,0-1.7,0.1c-5.6,0.7-11.2,1-17.1,1.4
			c-2.4,0.1-4.8,0.3-7.3,0.5l-0.9,0.1v0.9V167H291c0-0.2,0-0.4,0-0.6c-0.1-1.1-0.2-2.3-0.2-3.5c0-12.7,0-25.5,0-38.2
			c0-37,0-75.2-0.1-112.8c0-4,0.8-4.9,4.8-5.1C299.4,6.6,303,6.5,306.4,6.5 M304.2,98.6c17.5,0,37.6-1.8,54.2-15.5
			c8-6.6,12.7-16.2,12.7-26.4c0.1-10.4-4.6-20.3-12.7-27.2c-15.9-13.5-34.9-15.3-53-15.3c-1.8,0-3.7,0-5.8,0.1l-1,0v1v82.4v1l1,0
			C301.2,98.5,302.7,98.6,304.2,98.6 M306.4,5.5c-3.6,0-7.3,0.1-10.9,0.3c-4.5,0.2-5.8,1.6-5.8,6.1c0.2,50.3,0.1,100.6,0.1,150.9
			c0,1.7,0.2,3.5,0.2,5.1c3.4,0,6.1,0,9.4,0c0-20.5,0-40.6,0-60.4c8.5-0.6,16.5-0.9,24.4-1.8c0.6-0.1,1.1-0.1,1.6-0.1
			c2.1,0,3.6,0.7,5.1,2.7c11.9,15.8,24,31.5,36.1,47.3c3.8,5,7.7,9.9,11.6,15c2.8-1.8,5.1-3.3,7.8-5.1
			c-15.9-20.9-31.4-41.4-46.9-61.8c0.4-0.6,0.5-0.8,0.6-0.8c1.7-0.7,3.4-1.3,5.1-1.9c13.3-5.2,24.5-13,30.8-26.3
			c10.2-21.6,1.2-46.4-21.3-58.6C339.1,8,323,5.5,306.4,5.5L306.4,5.5z M304.2,97.6c-1.5,0-3.1,0-4.6,0c0-27.9,0-54.9,0-82.4
			c1.9,0,3.9-0.1,5.8-0.1c19,0,37.1,2.2,52.4,15.1c16.5,14,16.6,38.4,0,52C342.2,95.1,323.6,97.6,304.2,97.6L304.2,97.6z"/>
	</g>
	<g>
		<path d="M21.5,341.5l0-36.4c0-37.4,0-76.1-0.1-114.1c0-4.3,1.1-5.4,5.3-5.6c4.5-0.2,8.6-0.3,12.3-0.3c19.7,0,34.4,2.9,47.6,9.3
			c7.2,3.5,13.6,8,18.4,13.1c7.5,7.9,11.3,17.9,10.8,28.2c-0.5,10.6-5.4,20.6-13.9,28c-12.1,10.6-27.2,16.1-49,18
			c-2.4,0.2-4.9,0.3-8,0.3c-2.2,0-4.4,0-6.8-0.1c-2.4,0-4.9-0.1-7.4-0.1h-0.5v59.8H21.5z"/>
		<path class="st0" d="M39,185.6c19.6,0,34.2,2.8,47.4,9.2c7.2,3.5,13.5,8,18.3,13c7.4,7.8,11.2,17.6,10.7,27.9
			c-0.5,10.5-5.3,20.3-13.7,27.6c-12,10.5-27,16-48.7,17.9c-2.3,0.2-4.9,0.3-7.9,0.3c-2.2,0-4.4,0-6.7-0.1c-2.4-0.1-4.9-0.1-7.4-0.1
			h-1v1V341H22v-4.6c0-10.4,0-20.9,0-31.3c0-37.4,0-76-0.1-114.1c0-4,0.8-4.9,4.9-5.1C31.3,185.7,35.3,185.6,39,185.6 M39,184.6
			c-4.1,0-8.2,0.1-12.3,0.3c-4.5,0.2-5.8,1.6-5.8,6.1c0.2,48.5,0.1,96.9,0.1,145.4c0,1.8,0,3.6,0,5.6c3.6,0,6.5,0,9.8,0
			c0-19.7,0-39.1,0-59.8c4.9,0,9.6,0.2,14.1,0.2c2.7,0,5.4-0.1,8-0.3c18-1.5,35.2-5.8,49.3-18.1c17.4-15.2,19-40.2,3.1-56.9
			c-5.1-5.4-11.8-9.9-18.5-13.2C71.6,186.5,55.5,184.6,39,184.6L39,184.6z"/>
	</g>
	<g>
		<path d="M98.9,168.8c-33.7,0-58.3-9.3-77.4-29.3C4.9,122.3-2.4,98.7,1.5,74.8C5.6,50,20.9,29,43.4,17.2
			c16.1-8.4,34-12.5,54.7-12.5c5.7,0,11.8,0.3,18.2,0.9v8.2l-3.3-0.1c-2.7-0.1-5.4-0.3-8.1-0.3c-2.1-0.1-4.2-0.1-6.2-0.1
			c-22.1,0-40.3,4.6-55.6,14C21.6,40.5,8.7,62.7,8.7,86.8c0,24.1,12.9,46.5,34.5,59.8c13.9,8.6,34.9,14.1,53.5,14.1
			c4,0,7.9-0.3,11.4-0.8l0.4-0.1v-58.8h7.7v67.2C110,168.6,104.3,168.8,98.9,168.8z"/>
		<path class="st0" d="M98.1,5.2c5.6,0,11.5,0.3,17.7,0.9v7.2c-0.9,0-1.9-0.1-2.8-0.1c-2.8-0.1-5.4-0.3-8.1-0.3
			c-2.1-0.1-4.2-0.1-6.2-0.1c-22.2,0-40.5,4.6-55.9,14.1c-11.2,6.9-19.9,15.8-25.9,26.7c-5.7,10.2-8.7,21.6-8.7,33.2
			c0,24.3,13,46.8,34.7,60.2c14,8.6,35.1,14.2,53.8,14.2c4.1,0,7.9-0.3,11.5-0.8l0.9-0.1v-0.9v-57.9h6.7v66.3
			c-6.1,0.4-11.6,0.7-16.9,0.7c-33.5,0-58-9.3-77.1-29.1C5.3,122-1.9,98.6,2,74.9c4.1-24.7,19.2-45.5,41.6-57.2
			C59.6,9.3,77.5,5.2,98.1,5.2 M98.1,4.2c-19.1,0-37.5,3.4-55,12.5c-46.6,24.3-57.8,85.9-22.1,123.1c21.9,22.8,48.8,29.4,77.8,29.4
			c5.9,0,11.8-0.3,17.9-0.7c0-23.1,0-45.6,0-68.2c-3,0-5.5,0-8.7,0c0,19.9,0,39.5,0,58.9c-3.6,0.5-7.4,0.8-11.3,0.8
			c-18.2,0-39.3-5.4-53.2-14C-2.1,118-2.2,55.7,43.4,27.7c17.1-10.5,35.9-13.9,55.4-13.9c2,0,4.1,0,6.1,0.1
			c3.9,0.1,7.9,0.3,11.9,0.5c0-3.3,0-6,0-9.1C110.5,4.6,104.3,4.2,98.1,4.2L98.1,4.2z"/>
	</g>
	<g>
		<path d="M135.5,166.3l67.3-165l67.3,165l-8.3,3.7c-1.2-2.8-2.4-5.5-3.6-8.3c-3.1-7.1-6-13.9-8.7-20.9c-1.8-4.8-4.6-5.8-8.7-5.8
			l-0.2,0c-11.9,0.1-24.3,0.1-37.9,0.1c-12,0-25.1,0-40.1-0.1c0,0,0,0,0,0c-3.7,0-5.4,1.2-6.7,4.5c-2.8,7.4-5.7,14.5-8.8,22.1
			c-1.1,2.8-2.3,5.5-3.4,8.4L135.5,166.3z"/>
		<path class="st0" d="M202.7,2.6L269.4,166l-3.3,1.5l-4,1.8c-1.1-2.6-2.3-5.3-3.4-7.8c-3.1-7.1-6-13.9-8.7-20.9
			c-1.9-5.1-4.8-6.1-9.2-6.1l-0.2,0c-11.9,0.1-24.4,0.1-37.9,0.1c-12,0-25.1,0-40.1-0.1l-0.1,0c-3.8,0-5.7,1.3-7,4.8
			c-2.8,7.4-5.7,14.5-8.8,22.1c-1.1,2.6-2.1,5.2-3.2,7.9l-7.4-3.3l62.1-152.4L202.7,2.6 M202.7,0c-23,56.4-45.3,111.2-67.9,166.5
			c3.2,1.4,6,2.7,9.2,4.1c4.3-10.6,8.5-20.7,12.4-31c1.2-3.2,2.8-4.1,6.1-4.1c0,0,0.1,0,0.1,0c13.4,0.1,26.7,0.1,40.1,0.1
			c12.6,0,25.3,0,37.9-0.1c0.1,0,0.1,0,0.2,0c4.3,0,6.6,1.1,8.2,5.4c3.7,9.9,8.1,19.6,12.4,29.7c3.2-1.4,5.8-2.6,9.2-4.1
			C248,111.1,225.6,56.2,202.7,0L202.7,0z"/>
	</g>
	<g>
		<path d="M473.8,344.8c-29.3,0-53.6-19.6-59.2-47.7c-0.7-3.4-1-6.9-1-10.3c-0.1-27.5-0.1-55.5,0-82.5l0-15c0-0.6,0.1-1.2,0.1-2
			c0-0.3,0-0.6,0.1-0.9h7.7c0,0.5,0.1,1,0.1,1.5c0.1,1.3,0.2,2.6,0.2,3.9c0,11.2,0,22.4,0,33.6c0,19.6,0,39.9,0,59.9
			c0.1,23.6,14.2,42.5,36.8,49.2c5.1,1.5,10.3,2.2,15.6,2.2c17.9,0,34.8-8.7,44.2-22.8c5.5-8.3,8.2-17.7,8.2-28.7
			c-0.1-22.4,0-45.2,0-67.3c0-8.7,0-31.4,0-31.4h8c0,0.4,0.1,0.8,0.1,1.2c0.1,1.2,0.2,2.4,0.2,3.5l0,22.4c0,23.6,0,48.1,0,72.1
			c-0.1,32.1-22.1,55.7-54.8,58.7C477.9,344.7,475.8,344.8,473.8,344.8C473.8,344.8,473.8,344.8,473.8,344.8z"/>
		<path class="st0" d="M421,186.9c0,0.3,0,0.7,0.1,1c0.1,1.3,0.2,2.6,0.2,3.9c0,11.2,0,22.4,0,33.6c0,19.6,0,39.9,0,59.9
			c0.1,23.9,14.3,42.9,37.2,49.6c5.1,1.5,10.4,2.3,15.7,2.3c18.1,0,35.2-8.8,44.6-23c5.6-8.4,8.3-17.9,8.3-28.9
			c-0.1-22.4,0-45.2,0-67.3c0-8.7,0-17.5,0-26.2V187h7c0,0.3,0,0.5,0.1,0.8c0.1,1.2,0.2,2.4,0.2,3.5c0,7.5,0,15,0,22.6
			c0,23.6,0.1,48,0,71.9c-0.1,31.8-21.9,55.2-54.3,58.2c-2,0.2-4.1,0.3-6.2,0.3c-29,0-53.2-19.4-58.7-47.3c-0.7-3.4-1-6.9-1-10.2
			c-0.1-27.4-0.1-55.3,0-82.3l0-15.2c0-0.6,0.1-1.2,0.1-2c0-0.1,0-0.3,0-0.4H421 M421.9,185.9c-3.1,0-5.6,0-8.7,0
			c-0.1,1.5-0.2,2.4-0.2,3.4c0,32.5,0,65,0,97.5c0,3.5,0.4,7,1,10.4c5.7,28.7,30.3,48.1,59.6,48.1c2.1,0,4.1-0.1,6.2-0.3
			c32.8-3,55.1-26.9,55.2-59.2c0.1-31.5,0-63,0-94.5c0-1.7-0.2-3.5-0.3-5.3c-3.2,0-5.8,0-8.9,0c0,2.1,0,3.9,0,5.7
			c0,31.2-0.1,62.3,0,93.5c0,10.3-2.4,19.8-8.1,28.4c-9.5,14.3-26.4,22.6-43.8,22.6c-5.2,0-10.4-0.7-15.5-2.2
			c-22.4-6.6-36.4-25.1-36.4-48.7c-0.1-31.2,0-62.3,0-93.5C422.2,189.8,422,187.9,421.9,185.9L421.9,185.9z"/>
	</g>
	<g>
		<path d="M192.2,344.9c-28,0-52-18.1-58.3-44.1c-1.1-4.5-1.7-9-1.7-13.2c-0.1-25.8-0.1-52-0.1-77.3l0-21.2c0-0.5,0-1.1,0.1-1.7
			c0-0.2,0-0.5,0.1-0.7h8l0,32.9c0,21.9,0,43.8,0,65.6c0,25,15.2,44.1,39.6,49.9c4.3,1,8.6,1.5,13,1.5c0,0,0,0,0,0
			c20.5,0,38.9-11.3,46.9-28.7c3.1-6.8,4.9-14.9,5-22.8c0.4-22.8,0.3-45.9,0.3-68.3c0-8.4,0-16.8,0-25.2v-5.2h7.9
			c0,0.3,0,0.6,0.1,0.9c0.1,0.8,0.1,1.6,0.1,2.3c0,9.3,0,18.6,0,27.9c0,22.8,0.1,46.4-0.1,69.5c-0.2,30.6-21.8,53.6-53.6,57.3
			C197.1,344.7,194.6,344.9,192.2,344.9C192.2,344.9,192.2,344.9,192.2,344.9z"/>
		<path class="st0" d="M252.5,187c0,0.1,0,0.3,0,0.4c0.1,0.8,0.1,1.5,0.1,2.2c0,9.3,0,18.7,0,28c0,22.8,0.1,46.3-0.1,69.4
			c-0.2,30.3-21.6,53.1-53.1,56.8c-2.4,0.3-4.9,0.4-7.4,0.4c-13.3,0-26.4-4.3-36.8-12.1c-10.5-7.9-18-19.1-21-31.6
			c-1.1-4.5-1.7-8.9-1.7-13.1c-0.1-25.7-0.1-51.9-0.1-77.2c0-7.1,0-14.2,0-21.3c0-0.5,0-1,0.1-1.7c0-0.1,0-0.2,0-0.2h7.1v4.1
			c0,9.4,0,18.9,0,28.3c0,21.5,0,43.8,0,65.7c0,25.2,15.4,44.5,40,50.4c4.3,1,8.7,1.5,13.1,1.5c20.7,0,39.3-11.4,47.3-29
			c3.1-6.8,4.9-15,5.1-23c0.4-22.8,0.3-45.9,0.3-68.3c0-8.2,0-16.8,0-25.1V187H252.5 M253.4,186c-2.9,0-5.5,0-8.9,0
			c0,2.1,0,3.9,0,5.7c0,31.2,0.3,62.3-0.2,93.5c-0.1,7.6-1.8,15.7-5,22.6c-8.2,17.8-26.7,28.4-46.4,28.4c-4.3,0-8.6-0.5-12.9-1.5
			c-24.1-5.7-39.2-24.7-39.2-49.4c0-31.3,0-62.6,0-94c0-1.7,0-3.5,0-5.1c-3.5,0-6.2,0-9,0c-0.1,1.3-0.2,2.1-0.2,2.9
			c0,32.8-0.1,65.6,0.1,98.5c0,4.5,0.6,9,1.7,13.3c6.4,26.4,31,44.5,58.8,44.5c2.5,0,5-0.1,7.5-0.4c31.9-3.7,53.8-26.9,54-57.8
			c0.2-32.5,0.1-65,0-97.5C253.7,188.5,253.5,187.4,253.4,186L253.4,186z"/>
	</g>
</g>
</svg>
